<svg xmlns="http://www.w3.org/2000/svg"><symbol id="icon-arrow" viewBox="0 0 10 16"><path d="M8.53 9.05a1.5 1.5 0 0 0 0-2.12L1.71.29a1.02 1.02 0 0 0-1.43 0 1 1 0 0 0 0 1.41l6.47 6.29-6.47 6.29a1 1 0 0 0 0 1.41 1.02 1.02 0 0 0 1.43 0l6.82-6.64z"/></symbol><symbol id="icon-in" viewBox="0 0 512 512"><path d="M373.7 0H138.3C62.1 0 0 62.1 0 138.3v235.3C0 449.9 62.1 512 138.3 512h235.3c76.3 0 138.3-62.1 138.3-138.3V138.3C512 62.1 449.9 0 373.7 0zm96.9 373.7c0 53.5-43.5 97-97 97H138.3c-53.5 0-97-43.5-97-97V138.3c0-53.5 43.5-97 97-97h235.3c53.5 0 97 43.5 97 97v235.4z" stroke="#000" stroke-width=".25" stroke-miterlimit="10"/><path d="M370.6 238.1c-3.6-24.5-14.8-46.8-32.4-64.3-17.5-17.5-39.8-28.7-64.3-32.4-11.2-1.7-22.5-1.7-33.7 0-30.3 4.5-57.1 20.5-75.4 45.2s-25.9 54.9-21.4 85.2c4.5 30.3 20.5 57.1 45.2 75.4 20 14.8 43.7 22.6 68.2 22.6 5.7 0 11.4-.4 17.1-1.3 30.3-4.5 57.1-20.5 75.4-45.2 18.2-24.6 25.8-54.8 21.3-85.2zm-102.8 89.5c-19.4 2.9-38.8-2-54.5-13.7s-26-28.8-28.9-48.2c-2.9-19.4 2-38.8 13.7-54.5 11.7-15.8 28.8-26 48.2-28.9 3.6-.5 7.2-.8 10.8-.8 3.6 0 7.2.3 10.8.8 32.2 4.8 57.1 29.6 61.9 61.9 5.8 40.1-21.9 77.5-62 83.4zM400 112c-3.9-3.9-9.2-6.1-14.6-6.1s-10.8 2.2-14.6 6.1c-3.9 3.9-6.1 9.2-6.1 14.6 0 5.5 2.2 10.8 6.1 14.6 3.9 3.9 9.2 6.1 14.6 6.1s10.8-2.2 14.6-6.1c3.9-3.9 6.1-9.2 6.1-14.6 0-5.5-2.2-10.8-6.1-14.6z"/></symbol><symbol id="icon-tw" viewBox="0 0 341 341"><path d="M115.394 304.407c-33.085 0-65.862-9.158-94.777-26.479L0 265.582l24.024.405c.778.039 2.031.103 4.004.103 9.145 0 38.278-1.472 68.15-18.329-22.455-6.677-41.01-24.036-48.651-46.762l-3.785-11.253 10.309 2.68c-16.523-12.693-27.333-32.205-28.516-53.953l-.566-10.411 9.557 4.171a56.845 56.845 0 0 0 5.315 2.024c-13.573-18.998-21.787-48.355-4.659-79.538l4.717-8.593 5.996 7.757c28.728 37.141 71.325 59.789 117.778 62.899-.283-2.886-.482-5.54-.482-6.369 0-34.474 26.234-70.13 70.13-70.13 18.426 0 36.164 7.32 49.23 20.206 17.513-4.113 34.249-14.325 34.429-14.435l15.18-9.345-5.733 16.883a69.994 69.994 0 0 1-12.314 22.038 98.11 98.11 0 0 0 8.773-3.348l18.233-8.908-7.661 16.453a70.35 70.35 0 0 1-29.968 31.98c2.879 44.994-15.624 95.194-48.908 132.059-24.705 27.372-68.703 60.084-138.016 60.528l-1.172.013zm-67.553-26.935c21.427 9.248 44.409 14.075 67.546 14.075l1.099-.006c64.628-.411 105.586-30.836 128.556-56.286 32.031-35.483 49.397-83.999 45.309-126.621l-.431-4.524 4.113-1.915a57.424 57.424 0 0 0 17.269-12.397c-5.488 1.388-11.343 2.423-18.092 3.239l-4.929.598-3.843-9.743 4.473-3.445a57.689 57.689 0 0 0 16.144-14.049c-6.986 2.976-15.232 5.887-23.477 7.423l-3.522.656-2.41-2.648c-10.836-11.89-26.254-18.702-42.321-18.702-35.849 0-57.276 29.12-57.276 57.276 0 1.703.848 9.454 1.15 11.446l2.918 8.297-9.28-.199c-49.744-1.073-96.023-22.873-128.511-60.181-12.854 33.754 8.728 60.721 19.036 68.799l15.071 11.819-19.146-.334a72.809 72.809 0 0 1-17.552-2.436c5.058 22.558 22.886 40.682 46.048 45.656l25.354 5.45-24.962 7.025c-4.351 1.221-9.287 1.838-14.672 1.838-2.519 0-4.929-.135-7.153-.341 10.039 17.674 28.734 29.551 49.416 30.56l18.072.887-14.574 10.711c-24.981 18.374-50.894 25.45-69.423 28.072z"/></symbol><symbol id="icon-vk" viewBox="0 150 512 310"><path d="M489.2 385.6c-11.1-13.3-23.7-25.3-35.9-36.8-4.3-4.1-8.7-8.2-13-12.4-5.7-5.6-8.5-9.6-8.8-12.5s1.7-7.2 6.2-13.5c6.8-9.5 14-19 21-28.2 6.2-8.2 12.6-16.6 18.8-25.1l1.4-1.9c12-16.6 24.4-33.8 31-54.7 1.9-6 3.9-14.9-.9-22.7-4.8-7.8-13.6-10.1-19.8-11.2-3-.5-5.9-.6-8.6-.6l-77.8-.1c-13.5-.2-22.8 6.2-27.9 19-4.1 10.2-8.9 22.1-14.4 33.3-10.7 21.7-24.2 46.7-43.8 67.5l-.9.9c-1.3 1.4-3.5 3.8-4.6 4.3-2.1-1.3-4.6-9-4.5-13v-.3l-.1-89.9c0-.5 0-.9-.1-1.4-1.7-12.8-5.1-25.7-25.4-29.7-.7-.1-1.3-.2-2-.2h-80.9c-15.2 0-23.3 7-29.7 14.5-1.9 2.2-6.8 8.1-4.3 15.2 2.6 7.2 10.2 8.7 12.7 9.2 8.8 1.7 13.4 6.7 14.8 16.2 2.8 18.5 3.1 38.3 1.1 62.3-.6 6.4-1.6 11.3-3.4 15.4-.5 1.1-.9 1.8-1.2 2.2-.5-.2-1.2-.5-2.2-1.2-6.2-4.2-10.9-10.8-15.4-17.2-18-25.5-33.2-53.6-46.4-86-5.4-13.3-15.6-20.7-28.7-20.9-24.9-.4-48-.4-70.5 0-10.6.2-18 3.5-22.1 9.9s-3.9 14.6.4 24.3c31.2 69.4 59.5 119.8 91.8 163.6 22.8 30.8 45.7 52.2 72.1 67.4 27.8 15.9 59.1 23.7 95.4 23.7 4.1 0 8.3-.1 12.6-.3 22.4-1 31.5-9.9 32.5-31.8.6-11.5 1.8-20.9 6.3-29 1.2-2.3 2.7-3.8 3.8-4.1 1.2-.3 3.3.4 5.6 1.9 4.2 2.8 7.9 6.5 10.9 9.8s6.1 6.8 9.1 10.1c6.3 7.1 12.9 14.4 19.8 21.4 15.5 15.8 33.5 23.1 53.3 21.6h71.9c8.2-.5 15.3-5.1 19.5-12.5 5-8.9 4.9-20.2-.2-30.1-5.3-10.1-12.3-19-18.5-26.4zm1 46.8c-1 1.7-2.2 2.1-2.8 2.1h-72c-14 1.2-25.9-3.8-37.5-15.5-6.5-6.7-12.9-13.8-19.1-20.7-3-3.4-6.1-6.9-9.3-10.3-3.9-4.2-8.7-9.1-14.9-13.1-9.2-6-16.9-5.8-21.7-4.6-4.7 1.2-11.5 4.6-16.7 14-6.7 12.2-8.2 25.4-8.8 37.9-.3 7.6-1.6 9.6-2.2 10.1-.7.7-3.1 1.8-10.9 2.2-37.8 1.8-69.5-5-96.9-20.7-23.9-13.7-44.8-33.3-65.8-61.8-31.4-42.5-59-91.8-89.6-159.8-1.1-2.5-1.5-4-1.5-4.8.8-.3 2.3-.6 5-.6 22.2-.4 45.1-.4 69.8 0 3.4.1 7.2 1.1 10.1 8.2 13.8 33.9 29.7 63.3 48.6 90.1 5 7.1 11.3 15.9 20.5 22.2 8.4 5.8 15.3 5.5 19.5 4.3 4.3-1.2 10.2-4.7 14.2-14.1 2.6-6.1 4.1-12.9 4.9-21.6 2.2-25.7 1.8-47-1.2-67.1-2.1-14.4-9.6-24.8-21.3-30.1 2.1-1.1 4.4-1.5 7.7-1.5h79.9c4.5 1 5.4 2.2 5.7 2.6 1.3 1.7 2 5.8 2.5 9l.1 89.1c-.2 8.5 4 27.5 18.1 32.7.1 0 .2.1.4.1 12.9 4.2 21.4-4.9 25.9-9.8l.8-.9c21.5-22.8 36-49.5 47.3-72.5 5.9-11.9 10.9-24.2 15.1-34.8 2.1-5.3 4-6.2 8.6-6.1h.2l77.9.1c1.8 0 3.7 0 5.2.3 3.7.6 5.2 1.4 5.7 1.7.1.6 0 2.3-1.1 5.8-5.7 17.8-16.6 32.9-28.1 48.9l-1.4 1.9c-6 8.3-12.4 16.7-18.5 24.8-7.1 9.3-14.4 19-21.3 28.7-14.8 20.7-13.5 34.4 5 52.4 4.4 4.3 8.8 8.5 13.2 12.6 12.3 11.6 23.9 22.6 34.2 35 5.4 6.5 11.6 14.4 16 23 2.3 4.4 1.7 8.5.5 10.6z"/></symbol></svg>